<?xml version="1.0" encoding="utf-8"?>
<!-- Generator: Adobe Illustrator 23.0.3, SVG Export Plug-In . SVG Version: 6.00 Build 0)  -->
<svg version="1.1" id="Layer_1" xmlns="http://www.w3.org/2000/svg" xmlns:xlink="http://www.w3.org/1999/xlink" x="0px" y="0px"
	 viewBox="0 0 32 32" style="enable-background:new 0 0 32 32;" xml:space="preserve">
<path class="st0" d="M13.8,0c-0.5,0-1,0.4-1,1v2.4c-1.2,0.3-2.4,0.8-3.5,1.5L7.6,3.1c-0.4-0.4-1-0.4-1.4,0L3.1,6.3
	c-0.4,0.4-0.4,1,0,1.4l1.7,1.7c-0.7,1.1-1.1,2.3-1.4,3.5H1c-0.5,0-1,0.4-1,1v4.4c0,0.5,0.4,1,1,1h2.4c0.3,1.2,0.8,2.4,1.5,3.5
	l-1.7,1.7c-0.4,0.4-0.4,1,0,1.4l3.1,3.1c0.4,0.4,1,0.4,1.4,0l1.7-1.7c1.1,0.7,2.3,1.1,3.5,1.4V31c0,0.5,0.4,1,1,1h4.4
	c0.5,0,1-0.4,1-1v-2.4c1.2-0.3,2.4-0.8,3.5-1.4l1.7,1.7c0.4,0.4,1,0.4,1.4,0l3.1-3.1c0.4-0.4,0.4-1,0-1.4l-1.7-1.7
	c0.7-1.1,1.2-2.3,1.5-3.5H31c0.5,0,1-0.4,1-1v-4.4c0-0.5-0.4-1-1-1h-2.4c-0.3-1.2-0.8-2.4-1.5-3.5l1.7-1.7c0.4-0.4,0.4-1,0-1.4
	l-3.1-3.1c-0.4-0.4-1-0.4-1.4,0l-1.7,1.7c-1.1-0.7-2.3-1.2-3.5-1.5V1c0-0.5-0.4-1-1-1C18.2,0,13.8,0,13.8,0z M15.8,10
	c1.5,0,3.1,0.5,4.3,1.6c2.4,2.3,2.5,6.1,0.2,8.6c-2.3,2.4-6.1,2.5-8.6,0.2c-2.4-2.3-2.5-6.1-0.2-8.6C12.7,10.6,14.3,10,15.8,10z"/>
</svg>
