<?xml version="1.0" encoding="utf-8"?>
<!-- Generator: Adobe Illustrator 26.1.0, SVG Export Plug-In . SVG Version: 6.00 Build 0)  -->
<svg version="1.1" id="Layer_1" xmlns="http://www.w3.org/2000/svg" xmlns:xlink="http://www.w3.org/1999/xlink" x="0px" y="0px"
	 viewBox="0 0 90 90" style="enable-background:new 0 0 90 90;" xml:space="preserve">
<style type="text/css">
	.st0{fill:none;stroke:#1E1E1E;stroke-width:3.5;}
</style>
<path class="st0" d="M45,45.5c0-3.2,1.3-6.3,3.5-8.5c2.3-2.3,5.3-3.5,8.5-3.5c3.2,0,6.3,1.3,8.5,3.5c2.3,2.3,3.5,5.3,3.5,8.5
	s-1.3,6.3-3.5,8.5c-2.3,2.3-5.3,3.5-8.5,3.5c-3.2,0-6.3-1.3-8.5-3.5C46.3,51.8,45,48.7,45,45.5L45,45.5z"/>
<path class="st0" d="M20.9,69.6c0-3.2,1.3-6.3,3.5-8.5c2.3-2.3,5.3-3.5,8.5-3.5h12v12c0,3.2-1.3,6.3-3.5,8.5
	c-2.3,2.3-5.3,3.5-8.5,3.5c-3.2,0-6.3-1.3-8.5-3.5S20.9,72.8,20.9,69.6z"/>
<path class="st0" d="M45,9.4v24.1h12c3.2,0,6.3-1.3,8.5-3.5c2.3-2.3,3.5-5.3,3.5-8.5s-1.3-6.3-3.5-8.5c-2.3-2.3-5.3-3.5-8.5-3.5H45z
	"/>
<path class="st0" d="M20.9,21.4c0,3.2,1.3,6.3,3.5,8.5s5.3,3.5,8.5,3.5h12V9.4H33c-3.2,0-6.3,1.3-8.5,3.5
	C22.2,15.2,20.9,18.2,20.9,21.4z"/>
<path class="st0" d="M20.9,45.5c0,3.2,1.3,6.3,3.5,8.5c2.3,2.3,5.3,3.5,8.5,3.5h12V33.5H33c-3.2,0-6.3,1.3-8.5,3.5
	C22.2,39.2,20.9,42.3,20.9,45.5z"/>
</svg>
