<svg xmlns="http://www.w3.org/2000/svg" viewBox="160 90 1200 810">
  <defs>
    <style>
      .ea6a0ecb-8fd1-4047-b6fd-33d301cc36e5 {
        fill: #a4def4;
      }

      .badca457-96cd-4276-b0e3-ca5c3d18a79f {
        fill: #f3cec7;
      }

      .b4fbb048-565f-438b-b7de-b5620f7b6432 {
        fill: none;
        stroke: #95d8ed;
        stroke-miterlimit: 10;
        stroke-width: 20px;
      }
    </style>
  </defs>
  <title>landing-page-background</title>
  <g id="fc7381b8-e766-42ed-840a-bbe8cb91a299" data-name="Layer 4 copy 2">
    <g>
      <path class="ea6a0ecb-8fd1-4047-b6fd-33d301cc36e5" d="M975.21,900" transform="translate(10 10)"/>
      <path class="ea6a0ecb-8fd1-4047-b6fd-33d301cc36e5" d="M975.21,0" transform="translate(10 10)"/>
      <path class="ea6a0ecb-8fd1-4047-b6fd-33d301cc36e5" d="M975.21,0H0V900H975.21C905.43,765.24,866,612.23,866,450S905.43,134.76,975.21,0Z" transform="translate(10 10)"/>
    </g>
    <path class="badca457-96cd-4276-b0e3-ca5c3d18a79f" d="M870.06,721" transform="translate(10 10)"/>
  </g>
  <g id="lines" data-name="Layer 4 copy 4">
    <g>
      <path class="b4fbb048-565f-438b-b7de-b5620f7b6432" d="M975.22,0C905.44,134.76,866,287.77,866,450s39.44,315.24,109.22,450" transform="translate(10 10)"/>
      <path class="b4fbb048-565f-438b-b7de-b5620f7b6432" d="M295.22,0h-40C185.44,134.76,146,287.77,146,450s39.44,315.24,109.22,450h40C225.44,765.24,186,612.23,186,450S225.44,134.76,295.22,0Z" transform="translate(10 10)"/>
      <path class="b4fbb048-565f-438b-b7de-b5620f7b6432" d="M255.22,0h-40C145.44,134.76,106,287.77,106,450s39.44,315.24,109.22,450h40C185.44,765.24,146,612.23,146,450S185.44,134.76,255.22,0Z" transform="translate(10 10)"/>
      <path class="b4fbb048-565f-438b-b7de-b5620f7b6432" d="M215.22,0h-40C105.44,134.76,66,287.77,66,450s39.44,315.24,109.22,450h40C145.44,765.24,106,612.23,106,450S145.44,134.76,215.22,0Z" transform="translate(10 10)"/>
      <path class="b4fbb048-565f-438b-b7de-b5620f7b6432" d="M335.22,0h-40C225.44,134.76,186,287.77,186,450s39.44,315.24,109.22,450h40C265.44,765.24,226,612.23,226,450S265.44,134.76,335.22,0Z" transform="translate(10 10)"/>
      <path class="b4fbb048-565f-438b-b7de-b5620f7b6432" d="M375.22,0h-40C265.44,134.76,226,287.77,226,450s39.44,315.24,109.22,450h40C305.44,765.24,266,612.23,266,450S305.44,134.76,375.22,0Z" transform="translate(10 10)"/>
      <path class="b4fbb048-565f-438b-b7de-b5620f7b6432" d="M415.22,0h-40C305.44,134.76,266,287.77,266,450s39.44,315.24,109.22,450h40C345.44,765.24,306,612.23,306,450S345.44,134.76,415.22,0Z" transform="translate(10 10)"/>
      <path class="b4fbb048-565f-438b-b7de-b5620f7b6432" d="M0,0V30.7Q7.35,15.21,15.22,0Z" transform="translate(10 10)"/>
      <path class="b4fbb048-565f-438b-b7de-b5620f7b6432" d="M0,900H15.22Q7.35,884.81,0,869.3Z" transform="translate(10 10)"/>
      <path class="b4fbb048-565f-438b-b7de-b5620f7b6432" d="M455.22,0h-40C345.44,134.76,306,287.77,306,450s39.44,315.24,109.22,450h40C385.44,765.24,346,612.23,346,450S385.44,134.76,455.22,0Z" transform="translate(10 10)"/>
      <path class="b4fbb048-565f-438b-b7de-b5620f7b6432" d="M175.22,0h-40C65.44,134.76,26,287.77,26,450S65.44,765.24,135.22,900h40C105.44,765.24,66,612.23,66,450S105.44,134.76,175.22,0Z" transform="translate(10 10)"/>
      <path class="b4fbb048-565f-438b-b7de-b5620f7b6432" d="M0,869.3Q7.35,884.8,15.22,900h40A974.59,974.59,0,0,1,0,771.58Z" transform="translate(10 10)"/>
      <path class="b4fbb048-565f-438b-b7de-b5620f7b6432" d="M55.22,0h-40Q7.35,15.2,0,30.7v97.72A974.59,974.59,0,0,1,55.22,0Z" transform="translate(10 10)"/>
      <path class="b4fbb048-565f-438b-b7de-b5620f7b6432" d="M0,771.58A974.59,974.59,0,0,0,55.22,900h40A973.13,973.13,0,0,1,0,616Z" transform="translate(10 10)"/>
      <path class="b4fbb048-565f-438b-b7de-b5620f7b6432" d="M0,284A973.13,973.13,0,0,1,95.22,0h-40A974.59,974.59,0,0,0,0,128.42Z" transform="translate(10 10)"/>
      <path class="b4fbb048-565f-438b-b7de-b5620f7b6432" d="M135.22,0h-40A973.13,973.13,0,0,0,0,284V616A973.13,973.13,0,0,0,95.22,900h40C65.44,765.24,26,612.23,26,450S65.44,134.76,135.22,0Z" transform="translate(10 10)"/>
      <path class="b4fbb048-565f-438b-b7de-b5620f7b6432" d="M895.22,0h-40C785.44,134.76,746,287.77,746,450s39.44,315.24,109.22,450h40C825.44,765.24,786,612.23,786,450S825.44,134.76,895.22,0Z" transform="translate(10 10)"/>
      <path class="b4fbb048-565f-438b-b7de-b5620f7b6432" d="M855.22,0h-40C745.44,134.76,706,287.77,706,450s39.44,315.24,109.22,450h40C785.44,765.24,746,612.23,746,450S785.44,134.76,855.22,0Z" transform="translate(10 10)"/>
      <path class="b4fbb048-565f-438b-b7de-b5620f7b6432" d="M815.22,0h-40C705.44,134.76,666,287.77,666,450s39.44,315.24,109.22,450h40C745.44,765.24,706,612.23,706,450S745.44,134.76,815.22,0Z" transform="translate(10 10)"/>
      <path class="b4fbb048-565f-438b-b7de-b5620f7b6432" d="M786,450c0,162.23,39.44,315.24,109.22,450h40C865.44,765.24,826,612.23,826,450S865.44,134.76,935.22,0h-40C825.44,134.76,786,287.77,786,450Z" transform="translate(10 10)"/>
      <path class="b4fbb048-565f-438b-b7de-b5620f7b6432" d="M775.22,0h-40C665.44,134.76,626,287.77,626,450s39.44,315.24,109.22,450h40C705.44,765.24,666,612.23,666,450S705.44,134.76,775.22,0Z" transform="translate(10 10)"/>
      <path class="b4fbb048-565f-438b-b7de-b5620f7b6432" d="M975.22,0h-40C865.44,134.76,826,287.77,826,450s39.44,315.24,109.22,450h40C905.44,765.24,866,612.23,866,450S905.44,134.76,975.22,0Z" transform="translate(10 10)"/>
      <path class="b4fbb048-565f-438b-b7de-b5620f7b6432" d="M695.22,0h-40C585.44,134.76,546,287.77,546,450s39.44,315.24,109.22,450h40C625.44,765.24,586,612.23,586,450S625.44,134.76,695.22,0Z" transform="translate(10 10)"/>
      <path class="b4fbb048-565f-438b-b7de-b5620f7b6432" d="M575.22,0h-40C465.44,134.76,426,287.77,426,450s39.44,315.24,109.22,450h40C505.44,765.24,466,612.23,466,450S505.44,134.76,575.22,0Z" transform="translate(10 10)"/>
      <path class="b4fbb048-565f-438b-b7de-b5620f7b6432" d="M615.22,0h-40C505.44,134.76,466,287.77,466,450s39.44,315.24,109.22,450h40C545.44,765.24,506,612.23,506,450S545.44,134.76,615.22,0Z" transform="translate(10 10)"/>
      <path class="b4fbb048-565f-438b-b7de-b5620f7b6432" d="M535.22,0h-40C425.44,134.76,386,287.77,386,450s39.44,315.24,109.22,450h40C465.44,765.24,426,612.23,426,450S465.44,134.76,535.22,0Z" transform="translate(10 10)"/>
      <path class="b4fbb048-565f-438b-b7de-b5620f7b6432" d="M495.22,0h-40C385.44,134.76,346,287.77,346,450s39.44,315.24,109.22,450h40C425.44,765.24,386,612.23,386,450S425.44,134.76,495.22,0Z" transform="translate(10 10)"/>
      <path class="b4fbb048-565f-438b-b7de-b5620f7b6432" d="M655.22,0h-40C545.44,134.76,506,287.77,506,450s39.44,315.24,109.22,450h40C585.44,765.24,546,612.23,546,450S585.44,134.76,655.22,0Z" transform="translate(10 10)"/>
      <path class="b4fbb048-565f-438b-b7de-b5620f7b6432" d="M735.22,0h-40C625.44,134.76,586,287.77,586,450s39.44,315.24,109.22,450h40C665.44,765.24,626,612.23,626,450S665.44,134.76,735.22,0Z" transform="translate(10 10)"/>
    </g>
  </g>
</svg>
