<?xml version="1.0" encoding="utf-8"?>
<!-- Generator: Adobe Illustrator 23.0.3, SVG Export Plug-In . SVG Version: 6.00 Build 0)  -->
<svg version="1.1" id="Layer_1" xmlns="http://www.w3.org/2000/svg" xmlns:xlink="http://www.w3.org/1999/xlink" x="0px" y="0px"
	 viewBox="0 0 512 512" style="enable-background:new 0 0 512 512;" xml:space="preserve">
<path d="M354.4,208.8c-24-106-80.9-140.8-87-154.1c-6.7-9.4-13.9-27.3-13.9-27.3c-0.1,0.4-0.1,0.6-0.1,1v0.2c0,0.3-0.1,0.4-0.1,0.7
	v0.3h-0.1c0,0.1,0,0.3,0,0.4v0.5h-0.1c0,0.1,0,0.4-0.1,0.4v0.4c0,0.1,0,0.3-0.1,0.4v0.4c0,0.2,0,0.4-0.1,0.6v0.1
	c0,0.3-0.1,0.7-0.1,1V34c-0.1,0.1-0.1,0.1-0.1,0.2v0.3h-0.1V35h-0.1v0.3h-0.1v0.4h-0.1v0.4h-0.1v0.3h-0.1v0.3h-0.1V37h-0.1v0.3H252
	v0.2H252v0.3h-0.1v0.1v0.2h-0.1c-0.1,0-0.1,0.1-0.1,0.1v0.1l-0.1,0.1c0,0.1-0.1,0.3-0.1,0.4c-0.1,0.1-0.1,0.1-0.1,0.1v0.1h-0.1v0.1
	h-0.1v0.4h-0.1V40H251V40H251v0.1h-0.1v0.2h-0.1v0.1h-0.1v0.2h-0.1v0.1h-0.1v0.1h-0.1v0.2h-0.1v0.1h-0.1v0.1h-0.1v0.1h-0.1v0.2H250
	V42H250v0.1h-0.1v0.2h-0.1v0.1h-0.1v0.1h-0.1v0.1h-0.1v0.2h-0.1v0.1h-0.1v0.1h-0.1v0.1h-0.1v0.1h-0.1c0,0.1,0,0.1,0,0.1v0.1
	c-0.1,0-0.1,0.1-0.1,0.1v0.1H249c-0.1,0.1-0.1,0.2-0.2,0.4c0,0-0.1,0.1-0.1,0.2c-0.1,0-0.1,0.1-0.1,0.1v0.1h-0.1v0.1h-0.1
	c0,0,0,0,0,0.1v0.1h-0.1v0.1h-0.1v0.1h-0.1v0.1v0.1h-0.1V45H248V45H248v0.1h-0.1V45h-0.1v0.1h-0.1v0.1h-0.1v0.1h-0.1v0.1h-0.1v0.1
	h-0.1v0.1h-0.1v0.1h-0.1v0.1h-0.1V46H247V46H247v0.1h-0.1v0.2h-0.1v0.1h-0.1v0.1h-0.1v0.1h-0.1v0.1h-0.1v0.1h-0.1v0.1h-0.1v0.1h-0.1
	V47h-0.1v0.1H246v0.1H246v0.1h-0.1v0.1h-0.1v0.1h-0.1v0.1h-0.1v0.1h-0.1v0.1h-0.1v0.1h-0.1V48h-0.1V48h-0.1v0.1h-0.1v0.1h-0.1v0.1
	H245v0.1H245v0.1h-0.1v0.1c-0.1,0-0.1,0.1-0.1,0.1l-0.1,0.1l-0.1,0.1v0.1h-0.1V49h-0.1V49h-0.1v0.1h-0.1l-0.1,0.1v0.1
	c-0.1,0.1-0.1,0.1-0.3,0.3c0,0-0.1,0.1-0.2,0.1c-0.2,0.1-0.5,0.4-0.7,0.7c-0.1,0.1-0.3,0.2-0.4,0.3c-0.3,0.3-0.6,0.5-0.9,0.7
	c-0.4,0.4-0.9,0.7-1.4,1.2h-0.1c-1,0.9-2.2,1.9-3.5,3.1h-0.1c-3.2,2.8-7,6.5-11.3,10.8l-0.4,0.4c-25.9,26.8-66.8,82.7-71,173
	c-0.4,7.4-0.4,14.7,0.1,21.8v0.1c2.1,35.6,13.3,66,27.2,90.7c5.5,9.8,11.5,18.8,17.6,26.8c21,27.7,42.4,44.2,47.9,48.2
	c8.4,19.4,7.7,52.9,7.7,52.9l12.3,4.1c0,0-2.5-32.4,1-48.1c1.1-4.8,3.6-9,6.6-12.6c2.1-1.4,8-5.7,15.2-12.3c0.4-0.4,0.6-0.7,0.9-1
	c29-27,83.1-93.6,64.6-202L354.4,208.8z"/>
</svg>
