<?xml version="1.0" encoding="utf-8"?>
<!-- Generator: Adobe Illustrator 23.0.3, SVG Export Plug-In . SVG Version: 6.00 Build 0)  -->
<svg version="1.1" id="Layer_1" xmlns="http://www.w3.org/2000/svg" xmlns:xlink="http://www.w3.org/1999/xlink" x="0px" y="0px"
	 viewBox="0 0 512 512" style="enable-background:new 0 0 512 512;" xml:space="preserve">
<g>
	<path d="M240.7,22.1c-1,0.1-4.2,0.4-7.1,0.6c-66.5,6-128.7,41.9-168.2,97c-22,30.6-36,65.4-41.3,102.2C22.2,234.8,22,238.6,22,256
		c0,17.4,0.2,21.2,2.1,34.1c12.7,87.9,75.3,161.7,160.1,189c15.2,4.9,31.2,8.2,49.4,10.2c7.1,0.8,37.7,0.8,44.8,0
		c31.4-3.5,58.1-11.3,84.3-24.7c4-2.1,4.8-2.6,4.3-3.1c-0.4-0.3-17.5-23.3-38.1-51.1l-37.4-50.5l-46.9-69.4
		c-25.8-38.1-47-69.3-47.2-69.3c-0.2,0-0.4,30.8-0.5,68.4c-0.1,65.9-0.2,68.6-1,70.1c-1.2,2.2-2.1,3.2-4,4.2
		c-1.5,0.7-2.7,0.9-9.7,0.9h-7.9l-2.1-1.3c-1.4-0.9-2.4-2-3.1-3.3l-1-2.1l0.1-91.7l0.1-91.8l1.4-1.8c0.7-1,2.3-2.2,3.4-2.8
		c1.9-0.9,2.6-1,10.5-1c9.3,0,10.9,0.4,13.3,3c0.7,0.7,26.1,39,56.5,85s71.9,109,92.3,139.8l37.1,56.1l1.9-1.2
		c16.6-10.8,34.2-26.2,48.1-42.2c29.6-34,48.7-75.4,55.1-119.6c1.9-12.9,2.1-16.6,2.1-34.1c0-17.4-0.2-21.2-2.1-34.1
		c-12.7-87.9-75.3-161.7-160.1-189c-15-4.8-30.9-8.2-48.7-10.2C274.7,22.3,244.5,21.8,240.7,22.1L240.7,22.1z M336.5,163.6
		c2.2,1.1,4,3.2,4.6,5.4c0.4,1.2,0.5,26.6,0.4,83.9l-0.1,82.2L326.8,313l-14.5-22.2V231c0-38.7,0.2-60.4,0.5-61.4
		c0.7-2.6,2.3-4.6,4.5-5.8c1.9-1,2.6-1.1,9.7-1.1C333.8,162.7,335,162.8,336.5,163.6z"/>
</g>
</svg>
