<svg id="b3e20e35-3264-42f4-96c3-728006bafe59" data-name="Layer 1" xmlns="http://www.w3.org/2000/svg" viewBox="0 0 154 246">
  <defs>
    <style>
      .bb0770f0-48c7-45e9-a9f3-8608fc0dbfec {
        fill: #eab2bb;
      }

      .fbb706e6-baa9-4f69-9844-44c040ea9cae {
        fill: #88bcd8;
      }

      .a53f41b6-8ff1-4fa0-b217-684334d9d45c {
        fill: #6d6c96;
      }

      .a3fd648f-cdaf-4c89-8b6a-09f93f4ee099, .f7fc76a0-a921-4ef9-af8a-113a6a62d661 {
        fill: none;
      }

      .a3fd648f-cdaf-4c89-8b6a-09f93f4ee099 {
        stroke: #756d99;
        stroke-linecap: round;
        stroke-linejoin: round;
        stroke-width: 5px;
      }

      .f7fc76a0-a921-4ef9-af8a-113a6a62d661 {
        stroke: #44406c;
        stroke-miterlimit: 10;
      }
    </style>
  </defs>
  <title>portrait</title>
    <path class="shape skin first" d="M45,99c4.81,6.15-2,12.22-2.14,7.55-.1-4-1.37-6.5-5.12-7.61-3.41-1-2.51,2.45-9.12-4.75C26.23,91.58,34.76,85.91,45,99Z" />
    <path class="shape shirt fifth" d="M67.16,193.47c1.17,2,3.36,3.51,1.88,7.45-6.14,16.33,3.28,13.72,8.79,11.61s21.41-19.15,27.33-24.45,6.57-23.93,4.93-27,34.76,1.85,32.72,6.1c-21.23,44.1-103.13,73.34-111.18,68.26C25.71,231.72,66,191.48,67.16,193.47Z"/>
    <path class="shape skin first" d="M113.7,105.75c.61-.36,7,1,7.39,3.63s-5.16,6.34-7.51,6.69-6-1.06-4.57-5S111.81,106.86,113.7,105.75Z"/>
    <path class="shape skin fifth" d="M97.07,150.55c-3.46,5.63-16.66,24.74-48.67,22.28-3.88-.3,6.09,8.55,32.6,8.44,8.51,0,17.39,14,21.46,9.39,8.79-9.88,17.6-15.61,16.54-17.66-2.35-4.52-13.9-11.9-11.61-33.13.06-.55,2-5.32,2.61-7.87.25-1,2-1,0-1.45-2.92-.66-4.24-7.28-4.87-5C102.58,135,99.64,146.36,97.07,150.55Z"/>
    <path class="shape skin first" d="M129.53,93.43c3,2.86,2.05,10.13-1.44,15.6-2.26,3.53-4.29,12-5.12,6.69-1.15-7.36,11.37-10.3.08-18.45C116.72,92.7,123,87.22,129.53,93.43Z"/>
    <path class="shape hair third" d="M104.44,49.31c-34-7.37-34.89,4.37-44.17,1.59C41.88,45.4,52,22.4,55,21.93,62.17,20.81,91.3,28.85,98.71,32,133.42,46.64,129.33,60,124.63,86c-2.58,14.3-8.38,22.59-14.29,28.74-16.43,17.09,1.78-15.87-10-30.26C91.64,73.82,115,51.6,104.44,49.31Z"/>
    <path class="shape skin fifth" d="M47.16,152.8c2.82.52,5.28,1.31,9.94,1.14s12.67-3,13.29-1.94-8.27,5.46-12.32,5.63S44.35,152.27,47.16,152.8Z"/>
    <path class="shape skin third" d="M39.25,136c3.31,1.56,9,1.38,10.55-.11s3.64-4,9.5-3.17c4.41.62,3.92.4,5.28,2,1.68,2-2.41,9.75-7.39,9.27C45.52,142.87,36.66,134.79,39.25,136Z"/>
    <path class="shape skin first" d="M89.33,92.38s-2.26-3.75-2.58-4.08C84.22,85.67,55.8,85.57,53.46,96c-.74,3.27-.57,9.85,8.41,7.24,1.89-.54,2.18-4.84,5.17-5.71,6.87-2,12.78.46,18.42,3.28C92.26,104.22,90.85,96,89.33,92.38Z"/>
    <path class="shape hair third" d="M56,46c-11.3,1.88-18.1,7.69-22.12,15.12-.65,1.2-.61-14.34,15.28-23C57.9,33.42,64.31,44.62,56,46Z"/>
    <path class="shape skin first" d="M87.71,107.74c5-.2,13.6,9.68,9.81,7C92.79,111.32,84.87,107.85,87.71,107.74Z"/>
    <path class="shape skin first" d="M86.9,105.22c.2-.08,9.14-1.8,12.63-3.88s0,5.21-3.75,5.26S84.46,106.17,86.9,105.22Z"/>
    <path class="shape hair second" d="M77.87,107.56c-1.65-.63-3.26-3.87-2.73-5.39s1.46-2.64,3.63-2,4.44,1.76,5,2.87.58,2.17-1.82,3.23S79.1,108,77.87,107.56Z"/>
    <path class="shape hair second" d="M37.65,104.81c-.17-1.51.29-2.59,1.34-2.93a3.27,3.27,0,0,1,4,1.93c.82,1.76,1.49,2.7.59,4C42.88,108.86,38.19,109.69,37.65,104.81Z"/>
    <path class="shape skin third" d="M68.28,133.34c-.73-1.26,6,2.28,13.36,3.34s3,10.77,2.2,8.62C81.06,137.41,70.56,137.29,68.28,133.34Z"/>
    <path class="shape skin first" d="M85.16,109.59c1.41-3.08-4.39.44-9.23.79s-8.27-3-6.86-1.32a11.13,11.13,0,0,0,6.51,3.61C78.57,113,83.57,113.08,85.16,109.59Z"/>
    <path class="shape skin first" d="M35.29,111.17c-2.64-.74-5-2.8-3.34-.53,2.12,2.86,9.14,5.2,11.61,1.76S38.53,112.08,35.29,111.17Z"/>
    <path class="shape eyeshadow first slow" d="M72.2,102.79s-6.24,2.37-5.54,1.14S68,99.88,70,99.88h3.44Z"/>
    <path class="shape eyeshadow first slow" d="M34.67,104.93s-4.13,2.19-4.75,1.84-2.72-2.9-2.37-2.9,8.53-2.2,8.53-2.2Z"/>
    <path class="shape hair fifth" d="M114.07,132.22c.38.62-.41,4.55-3,7.89s-3.51,4.84-3.6,4.49.79-7.13.88-7.48.7-4.49,1.84-5S113.56,131.38,114.07,132.22Z"/>
    <path class="thick line second" d="M35.61,91.79c-7.87.36-7.42-.65-11,3"/>
    <path class="thick line second" d="M90.73,95.19C79.62,84.52,82.19,86.86,60.5,90"/>
    <path class="thin line forth" d="M78.18,144.17c-1.23-3.62-7-3.82-4.57-2.52,1.5.81,2,2.2.35,2.94-17.24,7.6-21,5.61-31.74,2.83-1.22-.31-.49-4.59-3.19-3.89"/>
    <path class="thin line third" d="M85.94,143c.26-2.85-1.6-6.68-6.69-7.12-3.87-.34-7.48-1.41-8.53-2.64"/>
    <path class="thin line second slow" d="M42.53,95.86c8.41,8.38,1.7,11.44.63,17.33-2,11.2-6.79,15.84-6.49,19.3.34,3.86,7.49,7.21,9.5,7.38,7.41.64,5.17-6.62,12.31-4.94,6,1.4,8.36-3.34,5.45-6.69"/>
    <path class="thin line first slow" d="M26.85,65.26c7-1.73,1.14-8.71,7.82-17.42,9.75-12.69,16.59-1.62,12,1.06-3.43,2-6.65,3.26-9.85,7.3-9.11,11.48-12.49,23-12,47,.06,3.21-1.17,8.46-1.42,12-1.24,17.06,18,44.31,22.22,55.24,1.38,3.58,5.79,6,7.74,6.15,21.87,1.47,26.7-4.19,34.77-10.26,6.31-4.74,11.9-7.88,15-16.71,3.11-9,4.75-23.28,3.5-24.48s.52,4.31,2.28,5.07c2.67,1.16,8.32,1.49,13.37-4,3.17-3.43,2-5.34,10.25-19.47,2.46-4.18,2.05-7.33-.08-11.87-3.3-7-9.42-10.67-15.91-7-10.09,5.69-10.24,26.72-4.58,26.39,21.93-1.29-7.1-29.06-8.79-32.72-3.87-8.33,8.18-29.61,4-31C76.07,40.42,64.21,53.16,61.3,51.56c-4.06-2.22-11.61-5.51-14.49-11.72-2.79-6-1.16-11.06,5-9.5,3.23.81,7.28,4.26,4.31,6C52.47,38.5,40.88,18.47,53.85,18c12.52-.44,33.76,12.8,34.46,17.42.29,1.92-12.94-8.62-4.61-9.33C88,25.75,109,32.52,118.33,39.8c7.47,5.84,4.48,13.05,2.84,9.18-1.8-4.24,4.24-2.22,6.51-.28,1.27,1.09,2.43,3.25,2.93,7.67,1.47,13.12-8.21,32.87,1.52,31.58"/>
    <path class="thin line nodelay" d="M131.53,97c-2-5.39-5.85-7.32-11.14-4.46-8,4.31-22.75,5.74-30.61,8.62-3,1.09-1.25,1.09-5.2,1.47-2.18.2-5.89-3.7-9.74-2.93-5.46,1.09-.66,8.19.57,8.07,2-.19,6.14-2.12,5.88-3.59-.29-1.69-3-3.82-8.47-4.66-5.95-.91-4.76,5-8.22,5.08-6.27.22-9.74-3.61-9.69-5.14,0-.84,2.5-7.5,4.17-7.77,8.42-1.33,18-2.34,23.41-.55,6.72,2.22,7.45,13,7.19,17.59-.14,2.34-3.79,6.57-6.52,8.56S67,119.59,63.74,118.53c-1.66-.53-6.24-5.33-7.42-8.49-1.24-3.32-1-8-5.23-9.34C42.75,98,41,104.9,44.68,106.8c1.59.82-9.85-12.89-11.88-13-3.87-.23-13.37.12-15.25,1.88-3.49,3.28-4.1,6.33-2.23,16,1,5.24,8.42,8,10.68,8,2.46,0,13.07.94,14-1.76,3.05-9.15,2-14.87-1.88-16.07-2.69-.83-4.87,3.36-1.81,6.2,1.37,1.28,4.84.42,5.06-1,.33-2.17-1.74-5.59-6.25-4.93-5,.74-3.75,3.84-5.39,4.43-.68.25-2.16-2.11-2-2.11s4.8-1.64,4.8-1.64"/>
    <path class="thin line fifth" d="M37.84,135.45c-.44,0-5.86,2-3.75,7.59"/>
    <path class="thin line forth" d="M111.9,142.31c-6.07,6.16-8.18,12.14,8.54,32.9,3.35,4.16,8-9.78-1.68-1-22,19.92-36.37,41.81-52.26,40.28-18-1.72,7.07-13.74,2.62-19-3.76-4.46-4.48-12.9-6.34-13.43-9.58-2.74,10.71,8.36-3.71,23.16-4,4.16-23.48,18.57-18.47,21.5,5.94,3.48,15.77-.86,39-12.29,14.87-7.33,52.18-27.14,52.29-43.71,0-4.88-8.63-7.58-11.27-8.05-4.4-.79-16.27-5-12.49-25.69C110.27,125.2,120.31,133.78,111.9,142.31Z"/>
</svg>
