<?xml version="1.0" encoding="utf-8"?>
<!-- Generator: Adobe Illustrator 23.0.3, SVG Export Plug-In . SVG Version: 6.00 Build 0)  -->
<svg version="1.1" id="Layer_1" xmlns="http://www.w3.org/2000/svg" xmlns:xlink="http://www.w3.org/1999/xlink" x="0px" y="0px"
	 viewBox="0 0 512 512" style="enable-background:new 0 0 512 512;" xml:space="preserve">
<title>Logo Javascript</title>
<path d="M348.8,44.8c-17,0.1-33.9,2.6-50.3,7.4l-1.1,0.4c-10.3-1.8-20.7-2.8-31.2-3c-21.5-0.4-40,4.9-54.9,13.5
	C196.6,58,166.2,49.2,134.1,51c-22.3,1.2-46.7,8-64.8,27.1c-18,19.1-27.5,48.6-25.5,88.7c0.5,11.1,3.7,29.2,8.9,52.6
	s12.6,50.8,21.8,75.8c9.2,25,19.2,47.5,35,62.7c7.8,7.6,18.7,14.1,31.4,13.5c8.9-0.4,17-4.3,24-10.1c3.4,4.5,7,6.4,10.3,8.2
	c4.2,2.3,8.2,3.8,12.4,4.9c7.5,1.9,20.4,4.4,35.6,1.8c5.1-0.9,10.6-2.5,16-4.9c0.2,6,0.4,11.9,0.7,17.9c0.7,18.9,1.2,36.4,6.9,51.7
	c0.9,2.5,3.4,15.4,13.3,26.8c9.9,11.4,29.2,18.5,51.2,13.8c15.5-3.3,35.2-9.3,48.4-28c13-18.4,18.8-44.9,20-87.8
	c0.3-2.3,0.6-4.3,1-6.1l3.1,0.3h0.4c16.6,0.7,34.5-1.6,49.5-8.6c13.3-6.2,23.3-12.4,30.7-23.4c1.8-2.7,3.8-6,4.4-11.7
	s-2.7-14.6-8.1-18.7c-10.9-8.3-17.7-5.1-25-3.6c-7.2,1.6-14.6,2.5-21.9,2.7c21.1-35.5,36.2-73.3,44.9-106.7
	c5.1-19.7,8-37.9,8.2-53.8c0.2-15.9-1.1-30-10.6-42.1c-29.8-38-71.6-48.6-104-48.9C350.8,44.9,349.8,44.9,348.8,44.8L348.8,44.8z
	 M348,56.5c30.6-0.3,69.8,8.3,97.9,44.2c6.3,8.1,8.2,19.9,8,34.4c-0.2,14.5-2.9,31.9-7.8,50.9c-9.5,36.9-27.5,79.9-52.9,118.4
	c0.9,0.6,1.9,1.2,2.9,1.6c5.3,2.2,17.4,4.1,41.4-0.9c6.1-1.3,10.5-2.1,15.1,1.4c2.3,1.9,3.5,4.8,3.3,7.8c-0.2,2.2-1.1,4.3-2.4,6.1
	c-4.7,7-13.8,13.6-25.6,19.1c-10.4,4.9-25.4,7.4-38.6,7.5c-6.6,0.1-12.8-0.4-18-2.1l-0.3-0.1c-2,19.3-6.6,57.6-9.6,75
	c-2.4,14.1-6.6,25.2-14.7,33.6c-8,8.4-19.4,13.4-34.7,16.7c-18.9,4.1-32.8-0.3-41.7-7.8c-8.9-7.5-13-17.4-15.4-23.5
	c-1.7-4.2-2.6-9.6-3.4-16.9s-1.5-16.2-1.9-26.2c-0.6-15.3-0.7-30.7-0.5-46.1c-7.9,7.2-17.7,12.1-28.3,13.9
	c-12.6,2.1-23.8,0-30.5-1.6c-3.3-0.8-6.5-2.1-9.5-3.7c-3.1-1.7-6.1-3.5-8-7.2c-1.2-2.1-1.5-4.6-1-7c0.6-2.4,2-4.5,4-6
	c3.6-2.9,8.4-4.6,15.6-6.1c13.1-2.7,17.7-4.5,20.5-6.8c2.4-1.9,5.1-5.7,9.8-11.4c0-0.2,0-0.5-0.1-0.7c-8.5-0.2-16.8-2.5-24.3-6.5
	c-2.7,2.9-16.7,17.7-33.8,38.2c-7.2,8.6-15.1,13.5-23.5,13.9c-8.4,0.4-15.9-3.9-22.3-10.1c-12.8-12.5-23.1-33.9-32-58.2
	c-8.9-24.2-16.2-51.2-21.3-74.2c-5.2-23-8.2-41.5-8.7-50.5c-1.9-38,7-63.6,22.2-79.8c15.3-16.2,36.2-22.3,56.6-23.4
	c36.6-2.1,71.4,10.7,78.4,13.4c13.5-9.2,31-14.9,52.8-14.6c10.3,0.1,20.6,1.5,30.7,4l0.4-0.2c4.4-1.6,8.9-2.9,13.5-3.9
	C322.5,58.2,335.2,56.7,348,56.5L348,56.5z M350.7,68.7h-2.7c-10.5,0.1-20.9,1.3-31.1,3.5c22.7,10.1,39.9,25.6,52,41.1
	c8.4,10.7,15.4,22.5,20.7,35c2,4.8,3.4,8.9,4.1,12c0.4,1.6,0.6,2.9,0.7,4.3c0,0.7,0.1,1.4-0.2,2.6c0,0.1-0.1,0.2-0.1,0.2
	c0.5,16-3.4,26.8-3.9,42.1c-0.4,11.1,2.5,24.1,3.2,38.2c0.7,13.3-0.9,28-9.6,42.3c0.7,0.9,1.4,1.8,2.1,2.6
	c22.9-36,39.4-75.9,48.2-109.9c4.7-18.3,7.2-34.9,7.4-48c0.2-13.1-2.3-22.7-5.4-26.6C411.7,76.9,378.5,69,350.7,68.7L350.7,68.7z
	 M263.3,73.4c-21.6,0.1-37.1,6.6-48.8,16.3c-12.1,10.1-20.2,23.9-25.6,38.1c-6.3,16.8-8.5,33-9.4,44.1l0.2-0.1
	c6.5-3.7,15.1-7.3,24.2-9.4c9.2-2.1,19-2.8,28,0.7c8.9,3.5,16.3,11.6,19,24c12.9,59.5-4,81.6-10.2,98.2c-2.4,6-4.4,12.2-6,18.5
	c0.8-0.2,1.6-0.4,2.4-0.5c4.4-0.4,7.8,1.1,9.9,2c6.2,2.6,10.5,8,12.9,14.2c0.6,1.6,1,3.4,1.3,5.2c0.3,0.7,0.4,1.5,0.4,2.3
	c-0.7,22.7-0.6,45.5,0.2,68.2c0.4,9.8,1,18.5,1.8,25.3c0.8,6.8,1.9,12,2.6,13.7c2.3,5.8,5.7,13.5,11.9,18.7c6.2,5.2,15,8.7,31.2,5.2
	c14-3,22.7-7.2,28.5-13.2c5.8-6,9.2-14.4,11.4-27.2c3.3-19.2,9.9-74.7,10.8-85.2c-0.4-7.9,0.8-13.9,3.3-18.6
	c2.6-4.7,6.6-7.6,10.1-9.2c1.7-0.8,3.4-1.3,4.7-1.7c-1.4-2-2.9-4-4.4-5.9c-5-6.1-9.1-12.8-12.2-20.1c-1.5-3-3-5.9-4.7-8.8
	c-2.4-4.4-5.5-9.9-8.7-16c-6.4-12.3-13.4-27.3-17-41.8c-3.6-14.5-4.1-29.6,5.1-40.2c8.2-9.4,22.6-13.3,44.3-11.1
	c-0.6-1.9-1-3.5-2.1-6.1c-4.9-11.5-11.3-22.3-19-32.2c-18.3-23.5-48-46.7-93.9-47.5L263.3,73.4L263.3,73.4z M142.1,74.4
	c-2.3,0-4.6,0.1-6.9,0.2c-18.4,1.1-35.9,6.4-48.3,19.6c-12.5,13.2-20.7,34.9-18.9,70.7c0.3,6.8,3.3,25.8,8.4,48.4
	c5.1,22.6,12.2,49.2,20.8,72.7c8.6,23.5,19.1,43.9,29,53.6c5,4.8,9.3,6.8,13.3,6.6c4-0.2,8.7-2.5,14.5-9.5
	c10.6-12.8,21.6-25.3,33-37.4c-16.4-14.3-24.5-36-21.3-57.5c1.9-13.5,2.1-26.1,1.9-36.1c-0.2-9.7-0.9-16.2-0.9-20.2
	c0-0.1,0-0.2,0-0.3v-0.1l0-0.1v0c0-21,3.6-41.9,10.8-61.6c5.1-13.6,12.7-27.4,24.1-38.6c-11.2-3.7-31.1-9.3-52.6-10.4
	C146.7,74.4,144.4,74.4,142.1,74.4L142.1,74.4z M368.4,170.8c-12.4,0.2-19.3,3.4-23,7.5c-5.2,5.9-5.7,16.3-2.4,29.2
	c3.2,12.8,9.8,27.2,16,39.1c3.1,6,6.1,11.3,8.5,15.7c2.4,4.4,4.2,7.5,5.3,10.1c1,2.4,2.1,4.6,3.2,6.6c4.8-10.1,5.7-20.1,5.2-30.4
	c-0.6-12.8-3.6-26-3.2-39.2c0.5-15.5,3.6-25.6,3.8-37.7C377.4,171.1,372.9,170.8,368.4,170.8z M218.1,172.9c-3.8,0-7.6,0.5-11.2,1.4
	c-7.3,1.8-14.4,4.5-21,8.2c-2.2,1.2-4.4,2.6-6.4,4.2L179,187c0.1,2.7,0.6,9.1,0.9,18.6c0.2,10.4,0,23.7-2,38
	c-4.4,31.2,18.3,57.1,44.9,57.1c1.6-6.4,4.1-12.9,6.7-19.7c7.4-20,22-34.5,9.7-91.4c-2-9.3-6-13.1-11.5-15.2
	C224.6,173.3,221.3,172.8,218.1,172.9L218.1,172.9z M362.6,176.6h0.9c1.2,0,2.3,0.2,3.3,0.4c1,0.2,1.8,0.5,2.5,1
	c0.7,0.4,1.2,1.2,1.4,2l0,0.1h0h0c0,0.9-0.2,1.7-0.6,2.5c-0.5,1-1.2,1.9-2,2.7c-1.9,2-4.3,3.4-7,3.9c-2.6,0.3-5.3-0.4-7.5-1.9
	c-0.9-0.6-1.7-1.3-2.4-2.2c-0.6-0.7-1-1.5-1.1-2.3c-0.1-0.9,0.2-1.7,0.8-2.3c0.6-0.7,1.3-1.2,2.1-1.6c1.8-1,4.1-1.7,6.8-2.1
	C360.7,176.6,361.7,176.6,362.6,176.6L362.6,176.6z M219.9,179.7c1,0,2,0.1,3,0.2c2.8,0.4,5.3,1.1,7.2,2.2c0.9,0.5,1.8,1.1,2.4,1.9
	c0.7,0.9,1.1,2,1,3.1c-0.2,1-0.7,2-1.4,2.8c-0.7,0.9-1.6,1.7-2.6,2.4c-2.4,1.7-5.3,2.4-8.2,2.1c-3-0.5-5.7-2-7.7-4.2
	c-0.9-0.9-1.6-1.9-2.2-3c-0.6-1-0.9-2.1-0.7-3.2c0.3-2,1.9-3,3.5-3.6C216,179.9,217.9,179.7,219.9,179.7L219.9,179.7z M385.2,313.7
	L385.2,313.7c-2.7,1-4.9,1.4-6.8,2.2c-1.9,0.7-3.4,2.1-4.4,3.9c-1.1,2.1-2.1,5.8-1.8,12.2c0.8,0.6,1.7,1,2.7,1.3
	c3.1,0.9,8.4,1.6,14.2,1.5c11.6-0.1,26-2.8,33.6-6.4c6.2-2.9,12-6.7,17.2-11.2h0c-25.4,5.3-39.8,3.9-48.6,0.2
	C389.1,316.4,387.1,315.2,385.2,313.7L385.2,313.7z M238.6,315.4h-0.4c-1,0.1-2.4,0.4-5.1,3.4c-6.4,7.1-8.6,11.6-13.8,15.8
	c-5.2,4.2-12,6.4-25.6,9.2c-4.3,0.9-6.8,1.8-8.4,2.6c0.5,0.4,0.5,0.5,1.3,1c2,1.1,4.5,2.1,6.6,2.6c5.8,1.5,15.4,3.2,25.5,1.5
	c10-1.7,20.4-6.5,29.3-19c1.5-2.2,1.7-5.3,0.4-8.7c-1.3-3.4-4.1-6.4-6-7.2C241.2,316,239.9,315.6,238.6,315.4L238.6,315.4z"/>
</svg>
