<?xml version="1.0" encoding="utf-8"?>
<!-- Generator: Adobe Illustrator 23.0.3, SVG Export Plug-In . SVG Version: 6.00 Build 0)  -->
<svg version="1.1" id="Layer_1" xmlns="http://www.w3.org/2000/svg" xmlns:xlink="http://www.w3.org/1999/xlink" x="0px" y="0px"
	 viewBox="0 0 64 64" style="enable-background:new 0 0 64 64;" xml:space="preserve">
<g>
	<path d="M32,2.2C15.5,2.2,2.2,15.5,2.2,32S15.6,61.8,32,61.8S61.8,48.5,61.8,32S48.5,2.2,32,2.2z M29.6,34.8
		c-0.3,1.3-0.7,2.6-1.1,3.8c-0.4,1-0.8,2.1-1.3,3.1c-0.4,0.8-0.9,1.6-1.5,2.4c-1,1.2-2.2,1.9-3.7,2.2c-0.5,0.1-1,0.2-1.5,0.1
		c-3.5,0-6.6-2.5-7.2-5.9c-0.4-2.4,0.3-4.6,2-6.4c1-1.1,2.2-1.7,3.7-2c0.5-0.1,1-0.1,1.5-0.2c1.8-0.1,3.5,0.2,5.3,0.6
		c1,0.2,2.1,0.5,3.1,0.8C29.6,33.7,29.7,34.1,29.6,34.8z M32,30.9c-0.2,0.1-0.4,0.1-0.6,0s-0.4-0.2-0.5-0.4
		c-1.8-1.7-3.5-3.6-4.8-5.8c-0.6-1-1.1-2-1.4-3.1c-0.2-0.6-0.3-1.2-0.2-1.7l0,0c0-3.7,2.6-7,6.1-7.5c2.2-0.3,4.1,0.3,5.8,1.8
		c1.4,1.3,2.2,2.9,2.4,4.9c0.1,1.2-0.1,2.3-0.5,3.4s-1,2.1-1.7,3.1c-0.7,1.1-1.5,2-2.4,3c-0.6,0.7-1.2,1.3-1.8,2
		C32.4,30.7,32.2,30.8,32,30.9z M50.2,40.5c-0.6,3.5-3.7,6-7.2,5.9c-0.4,0-1,0-1.5-0.1c-1.5-0.3-2.8-1-3.7-2.2
		c-0.6-0.7-1.1-1.5-1.5-2.4c-0.5-1-0.9-2-1.3-3.1c-0.4-1.3-0.8-2.5-1.1-3.8c-0.2-0.7,0-1.2,0.8-1.4c1-0.3,2.1-0.6,3.1-0.8
		c1.7-0.4,3.5-0.6,5.3-0.6c0.5,0,1,0.1,1.5,0.2c1.4,0.3,2.7,0.9,3.7,2C49.9,35.9,50.6,38.1,50.2,40.5z"/>
</g>
</svg>
