<?xml version="1.0" encoding="utf-8"?>
<!-- Generator: Adobe Illustrator 23.0.3, SVG Export Plug-In . SVG Version: 6.00 Build 0)  -->
<svg version="1.1" id="Layer_1" xmlns="http://www.w3.org/2000/svg" xmlns:xlink="http://www.w3.org/1999/xlink" x="0px" y="0px"
	 viewBox="0 0 512 512" style="enable-background:new 0 0 512 512;" xml:space="preserve">
<title>Logo Javascript</title>
<g id="g37" transform="matrix(1.3333333,0,0,-1.3333333,0,62.986667)">
	<g id="g39" transform="scale(0.1)">
		<path id="path55" d="M3296.1-2186.8c-415.4-553.4-1302.7-366.6-1871.6-393.5c0,0-100.7-5.6-202.1-22.3c0,0,38.4,16.4,87.3,33.2
			c399.6,138.2,588.4,165.9,831.2,290.6c456.2,233.7,910.2,742.7,1002.5,1271.4c-173.6-508.5-701.7-946.2-1182.6-1124
			c-329.1-121.4-924.3-239.6-924.4-239.7c0.3-0.4-23.7,12.5-24.1,12.7C607.6-2161.3,595.9-1284.6,1331-1002
			c322.3,124,630.6,55.9,979,138.8c371.6,88.4,802,366.9,977,731.1C3483.1-713.8,3718.7-1623.9,3296.1-2186.8z M3303.3,48.1
			c-49.5-117.5-109.8-223.4-179.4-318c-306.2,314.3-733.7,510.1-1206.1,510.1C988.5,240.2,232.5-515.9,232.5-1445
			c0-487.1,207.9-926.4,539.4-1234.3l36.9-32.7c-61.6,50.3-71.1,140.8-21.2,202.5c50.3,61.7,140.9,71.3,202.5,21.3
			c61.8-50.1,71.2-140.8,21.2-202.6c-49.9-61.8-140.6-71.2-202.4-21.3l25.1-22.2c293.2-246.9,671.2-396,1083.7-396
			c888.3,0,1617.7,691.3,1680.2,1563.8C3644.2-1139.4,3518-597,3303.3,48.1"/>
	</g>
</g>
</svg>
