<?xml version="1.0" encoding="utf-8"?>
<!-- Generator: Adobe Illustrator 23.0.3, SVG Export Plug-In . SVG Version: 6.00 Build 0)  -->
<svg version="1.1" id="Layer_1" xmlns="http://www.w3.org/2000/svg" xmlns:xlink="http://www.w3.org/1999/xlink" x="0px" y="0px"
	 viewBox="0 0 280.1 280.1" style="enable-background:new 0 0 280.1 280.1;" xml:space="preserve">
<g>
	<path d="M149.5,253.6c-30.5,29.8-79.4,29.7-109.7-0.4c-30.3-30.1-30.4-78.7-0.4-108.9l0,0L149.5,34.9l13.8-13.7
		c22.8-22.7,59.8-22.7,82.6,0c22.8,22.7,22.8,59.4,0,82L124.5,222.6l0,0c-15,14.3-38.8,14.2-53.6-0.4c-14.8-14.6-14.9-38.2-0.4-53
		l0-0.1L84,155.8L151.6,89l13.5,13.4L84,182.5c-7.5,7.4-7.5,19.3,0,26.7s19.6,7.4,27,0L232.2,89.5l0,0l0.5-0.4
		c15.2-15.1,15.2-39.6,0-54.7s-39.9-15.1-55.1,0l-0.4,0.5l0,0l-13.8,13.7L53.2,157.9c-22.8,22.7-22.8,59.4,0,82s59.8,22.7,82.6,0
		l96.4-95.7l13.8-13.7l13.8,13.7l-13.8,13.7L149.5,253.6C149.5,253.6,149.5,253.6,149.5,253.6z"/>
</g>
</svg>
