<?xml version="1.0" encoding="utf-8"?>
<!-- Generator: Adobe Illustrator 23.0.3, SVG Export Plug-In . SVG Version: 6.00 Build 0)  -->
<svg version="1.1" id="Layer_1" xmlns="http://www.w3.org/2000/svg" xmlns:xlink="http://www.w3.org/1999/xlink" x="0px" y="0px"
	 viewBox="0 0 512 512" style="enable-background:new 0 0 512 512;" xml:space="preserve">
<path class="st0" d="M256.1,506.2c-6.7,0-13.4-1.8-19.2-5.1l-61.2-36.2c-9.1-5.1-4.7-6.9-1.7-8c12.2-4.3,14.7-5.2,27.7-12.6
	c1.4-0.8,3.2-0.5,4.6,0.3l47,27.9c1.7,0.9,4.1,0.9,5.7,0l183.4-105.9c1.7-1,2.8-2.9,2.8-5V150.1c0-2.1-1.1-4-2.8-5L259,39.2
	c-1.7-1-3.9-1-5.6,0L70,145c-1.8,1-2.9,3-2.9,5v211.6c0,2,1.1,3.9,2.8,4.9l50.2,29c27.3,13.6,43.9-2.4,43.9-18.6V168.1
	c0-3,2.3-5.3,5.3-5.3h23.2c2.9,0,5.3,2.3,5.3,5.3v209c0,36.4-19.8,57.2-54.3,57.2c-10.6,0-19,0-42.3-11.5l-48.1-27.7
	C41.4,388.2,34,375.4,34,361.6V150c0-13.8,7.3-26.6,19.2-33.4L236.8,10.7c11.6-6.6,27-6.6,38.6,0l183.3,105.9
	c11.8,6.8,19.2,19.6,19.2,33.4v211.6c0,13.7-7.4,26.5-19.2,33.4L275.4,501C269.5,504.4,262.9,506.1,256.1,506.2"/>
<path class="st0" d="M312.7,360.4c-80.2,0-97.1-36.8-97.1-67.7c0-2.9,2.4-5.3,5.3-5.3h23.7c2.6,0,4.8,1.9,5.2,4.5
	c3.6,24.1,14.2,36.3,62.8,36.3c38.7,0,55.1-8.7,55.1-29.2c0-11.8-4.7-20.6-64.7-26.4c-50.2-5-81.3-16-81.3-56.2
	c0-37,31.2-59,83.5-59c58.7,0,87.8,20.4,91.5,64.2c0.1,1.5-0.4,3-1.4,4.1c-1,1.1-2.4,1.7-3.9,1.7h-23.8c-2.5,0-4.6-1.7-5.1-4.1
	c-5.7-25.4-19.6-33.5-57.3-33.5c-42.2,0-47.1,14.7-47.1,25.7c0,13.4,5.8,17.3,62.7,24.8c56.4,7.5,83.1,18,83.1,57.7
	c0,39.9-33.3,62.8-91.4,62.8"/>
</svg>
