<?xml version="1.0" encoding="utf-8"?>
<!-- Generator: Adobe Illustrator 23.0.3, SVG Export Plug-In . SVG Version: 6.00 Build 0)  -->
<svg version="1.1" id="Layer_1" xmlns="http://www.w3.org/2000/svg" xmlns:xlink="http://www.w3.org/1999/xlink" x="0px" y="0px"
	 viewBox="0 0 512 512" style="enable-background:new 0 0 512 512;" xml:space="preserve">
<g>
	<path class="st0" d="M245.6,274.4c0,0-27.9-53.6-26.8-92.9c0.8-28,63.9-55.7,88.8-96c24.8-40.3-3-79.5-3-79.5s6.2,28.9-10.4,58.9
		c-16.4,29.9-77.4,47.5-101.2,99.1C169.2,215.6,245.6,274.4,245.6,274.4z"/>
	<path class="st0" d="M349.9,111.3c0,0-95,36.1-95,77.4c0,41.4,25.8,54.8,30,68.2c4.1,13.4-7.2,36.2-7.2,36.2s37.2-25.9,30.9-55.7
		c-6.2-30-35.1-39.3-18.5-69.3C301.1,148.1,349.9,111.3,349.9,111.3z"/>
	<path class="st0" d="M235.3,329c87.8-3.1,119.7-30.8,119.7-30.8c-56.8,15.5-207.5,14.5-208.6,3.1c-1-11.4,46.4-20.7,46.4-20.7
		s-74.3,0-80.5,18.6C106.2,317.8,147.5,332.1,235.3,329z"/>
	<path class="st0" d="M362.3,372.6c0,0,85.9-18.3,77.4-65.1c-10.3-56.8-70.2-24.7-70.2-24.7s42.4,0,46.4,25.8
		C420.1,334.3,362.3,372.6,362.3,372.6z"/>
	<path class="st0" d="M320,347.8c0,0-21.7,5.8-53.7,9.3c-43,4.8-95,1-99.1-6.2c-4.1-7.2,7.2-11.4,7.2-11.4
		c-51.7,12.5-23.4,34.1,37.1,38.2c52,3.6,129.2-15.5,129.2-15.5L320,347.8z"/>
	<path class="st0" d="M186.8,392.9c0,0-23.5,0.6-24.8,13c-1.4,12.4,14.5,23.5,72.3,26.8c57.9,3.5,98.4-15.7,98.4-15.7l-26.1-15.9
		c0,0-16.6,3.5-42,6.9c-25.5,3.5-77.7-2.7-79.8-7.5C182.6,395.6,186.8,392.9,186.8,392.9z"/>
	<path class="st0" d="M224.6,481c123.8-0.1,178.3-22.7,187.2-32.4c8.9-9.7-2.8-17.2-2.8-17.2s4.2,4.8-1.3,10.3
		c-5.6,5.6-55.8,19.3-136.4,23.4c-80.5,4.2-167.9-7.5-170.7-17.8c-2.7-10.4,44.7-18.6,44.7-18.6c-5.4,0.7-71.6,2.1-73.7,20
		C69.7,466.6,100.7,481,224.6,481z"/>
	<path class="st0" d="M363.7,489.3c-54.4,10.9-219.6,4-219.6,4s107.4,25.6,230,4.2c58.6-10.3,61.9-38.6,61.9-38.6
		S418,478.2,363.7,489.3z"/>
</g>
</svg>
